
<svg width="114" height="100" viewBox="0 0 114 100" fill="none" xmlns="http://www.w3.org/2000/svg">
<path d="M40.3586 0.728027H64.5798C66.537 0.728027 68.2493 2.42713 68.2493 4.36928V40.7846H36.6885V4.36984C36.6885 2.42769 38.1564 0.728582 40.3586 0.728582V0.728027Z" fill="#C2DAF4"/>
<path d="M68.2491 41.5132H36.6883C36.2828 41.5132 35.9546 41.1875 35.9546 40.7852V4.36984C35.9546 1.9194 37.8889 0 40.3584 0H64.5796C66.9255 0 68.9834 2.04203 68.9834 4.36984V40.7852C68.9834 41.1875 68.6546 41.5132 68.2497 41.5132H68.2491ZM37.4225 40.0566H67.5154V4.36984C67.5154 2.81778 66.1437 1.45661 64.5796 1.45661H40.3584C38.4515 1.45661 37.4225 2.95762 37.4225 4.36984V40.0566Z" fill="#3076F1"/>
<path d="M73.6411 41.5132H31.316C30.9105 41.5132 30.5823 41.1875 30.5823 40.7852C30.5823 40.3829 30.9105 40.0571 31.316 40.0571H73.6411C74.0465 40.0571 74.3748 40.3834 74.3748 40.7852C74.3748 41.1869 74.0465 41.5132 73.6411 41.5132Z" fill="#495096"/>
<path d="M63.8548 19.1785H41.1021C40.6967 19.1785 40.3684 18.8527 40.3684 18.4504C40.3684 18.0481 40.6967 17.7224 41.1021 17.7224H63.8548C64.2602 17.7224 64.5885 18.0481 64.5885 18.4504C64.5885 18.8527 64.2602 19.1785 63.8548 19.1785Z" fill="#495096"/>
<path d="M63.8548 23.5482H41.1021C40.6967 23.5482 40.3684 23.2225 40.3684 22.8202C40.3684 22.4179 40.6967 22.0922 41.1021 22.0922H63.8548C64.2602 22.0922 64.5885 22.4179 64.5885 22.8202C64.5885 23.2225 64.2602 23.5482 63.8548 23.5482Z" fill="#495096"/>
<path d="M63.8547 28.1613H52.8455C52.4401 28.1613 52.1118 27.8355 52.1118 27.4332C52.1118 27.0309 52.4401 26.7052 52.8455 26.7052H63.8547C64.2602 26.7052 64.5884 27.0315 64.5884 27.4332C64.5884 27.835 64.2602 28.1613 63.8547 28.1613Z" fill="#495096"/>
<path d="M49.9097 32.531H41.1021C40.6967 32.531 40.3684 32.2052 40.3684 31.8024C40.3684 31.3995 40.6967 31.0743 41.1021 31.0743H49.9097C50.3151 31.0743 50.6434 31.4001 50.6434 31.8024C50.6434 32.2047 50.3151 32.531 49.9097 32.531Z" fill="#495096"/>
<path d="M63.8548 36.9009H41.1021C40.6967 36.9009 40.3684 36.5752 40.3684 36.1729C40.3684 35.7706 40.6967 35.4448 41.1021 35.4448H63.8548C64.2602 35.4448 64.5885 35.7711 64.5885 36.1729C64.5885 36.5746 64.2602 36.9009 63.8548 36.9009Z" fill="#495096"/>
<path d="M59.451 32.531H54.5579C54.1525 32.531 53.8242 32.2052 53.8242 31.8024C53.8242 31.3995 54.1525 31.0743 54.5579 31.0743H59.451C59.8564 31.0743 60.1847 31.4001 60.1847 31.8024C60.1847 32.2047 59.8564 32.531 59.451 32.531Z" fill="#495096"/>
<path d="M47.9525 28.1613H41.1021C40.6967 28.1613 40.3684 27.8355 40.3684 27.4332C40.3684 27.0309 40.6967 26.7052 41.1021 26.7052H47.9525C48.3579 26.7052 48.6861 27.0315 48.6861 27.4332C48.6861 27.835 48.3579 28.1613 47.9525 28.1613Z" fill="#495096"/>
<path d="M45.506 10.1963C45.3081 10.1963 45.1112 10.1175 44.9664 9.96213C44.6912 9.66636 44.7103 9.2058 45.0078 8.93279L48.1886 6.01956C48.4872 5.74655 48.9513 5.76541 49.2259 6.06062C49.501 6.35638 49.482 6.81695 49.1845 7.08996L46.0037 10.0032C45.8628 10.1325 45.6838 10.1963 45.506 10.1963Z" fill="#495096"/>
<path d="M48.6863 13.1096C48.5084 13.1096 48.33 13.0458 48.1886 12.9165L45.0078 10.0033C44.7103 9.73081 44.6912 9.26969 44.9664 8.97393C45.2409 8.67872 45.7057 8.6593 46.0037 8.93286L49.1845 11.8461C49.482 12.1185 49.501 12.5797 49.2259 12.8754C49.0816 13.0308 48.8842 13.1096 48.6863 13.1096Z" fill="#495096"/>
<path d="M59.4511 10.1963C59.2732 10.1963 59.0949 10.1325 58.9534 10.0032L55.7731 7.08996C55.4756 6.81751 55.4566 6.35638 55.7318 6.06062C56.0063 5.76541 56.471 5.74655 56.7691 6.01956L59.9493 8.93279C60.2468 9.20524 60.2659 9.66636 59.9907 9.96213C59.8464 10.1175 59.649 10.1963 59.4511 10.1963Z" fill="#495096"/>
<path d="M56.2707 13.1096C56.0727 13.1096 55.8759 13.0308 55.731 12.8754C55.4559 12.5797 55.4749 12.1191 55.7724 11.8461L58.9526 8.93286C59.2507 8.6593 59.7154 8.67872 59.99 8.97393C60.2651 9.26969 60.2461 9.73026 59.9486 10.0033L56.7684 12.9165C56.6274 13.0458 56.4485 13.1096 56.2707 13.1096Z" fill="#495096"/>
<path d="M54.0686 15.0517C53.7594 15.0517 53.4714 14.8563 53.3708 14.5484L50.1899 4.83761C50.0647 4.45472 50.2755 4.0441 50.6608 3.9198C51.0467 3.79606 51.4605 4.0047 51.5857 4.38758L54.7665 14.0983C54.8918 14.4812 54.681 14.8918 54.2957 15.0161C54.2202 15.0406 54.1436 15.0517 54.0686 15.0517Z" fill="#495096"/>
<path d="M91.9808 72.1021H12.9568V98.5641H91.9808V72.1021Z" fill="#C2DAF4"/>
<path d="M91.9811 99.2922H12.9571C12.5516 99.2922 12.2234 98.9664 12.2234 98.5641V72.1021C12.2234 71.6997 12.5516 71.374 12.9571 71.374H91.9811C92.3865 71.374 92.7148 71.7003 92.7148 72.1021V98.5641C92.7148 98.9664 92.386 99.2922 91.9811 99.2922ZM13.6913 97.8356H91.2474V72.8306H13.6913V97.8356Z" fill="#3076F1"/>
<path d="M64.5795 92.2522H45.0071V95.4085H64.5795V92.2522Z" fill="#C2DAF4"/>
<path d="M64.5796 96.1365H45.0071C44.6017 96.1365 44.2734 95.8108 44.2734 95.4085V92.2522C44.2734 91.8499 44.6017 91.5242 45.0071 91.5242H64.5796C64.985 91.5242 65.3133 91.8505 65.3133 92.2522V95.4085C65.3133 95.8108 64.9844 96.1365 64.5796 96.1365ZM45.7408 94.6799H63.8453V92.9808H45.7408V94.6799Z" fill="#3076F1"/>
<path d="M41.0927 92.2522H37.6675V95.4085H41.0927V92.2522Z" fill="#C2DAF4"/>
<path d="M41.0927 96.1365H37.6675C37.2621 96.1365 36.9338 95.8108 36.9338 95.4085V92.2522C36.9338 91.8499 37.2621 91.5242 37.6675 91.5242H41.0927C41.4981 91.5242 41.8264 91.8505 41.8264 92.2522V95.4085C41.8264 95.8108 41.4981 96.1365 41.0927 96.1365ZM38.4012 94.6799H40.3585V92.9808H38.4012V94.6799Z" fill="#3076F1"/>
<path d="M33.9974 92.2522H30.5723V95.4085H33.9974V92.2522Z" fill="#C2DAF4"/>
<path d="M33.9972 96.1365H30.5721C30.1666 96.1365 29.8384 95.8108 29.8384 95.4085V92.2522C29.8384 91.8499 30.1666 91.5242 30.5721 91.5242H33.9972C34.4027 91.5242 34.7309 91.8505 34.7309 92.2522V95.4085C34.7309 95.8108 34.4027 96.1365 33.9972 96.1365ZM31.3063 94.6799H33.2636V92.9808H31.3063V94.6799Z" fill="#3076F1"/>
<path d="M26.9025 92.2522H23.4773V95.4085H26.9025V92.2522Z" fill="#C2DAF4"/>
<path d="M26.9028 96.1365H23.4776C23.0722 96.1365 22.7439 95.8108 22.7439 95.4085V92.2522C22.7439 91.8499 23.0722 91.5242 23.4776 91.5242H26.9028C27.3082 91.5242 27.6365 91.8505 27.6365 92.2522V95.4085C27.6365 95.8108 27.3082 96.1365 26.9028 96.1365ZM24.2118 94.6799H26.1691V92.9808H24.2118V94.6799Z" fill="#3076F1"/>
<path d="M19.8075 92.2522H16.3823V95.4085H19.8075V92.2522Z" fill="#C2DAF4"/>
<path d="M19.8073 96.1365H16.3821C15.9767 96.1365 15.6484 95.8108 15.6484 95.4085V92.2522C15.6484 91.8499 15.9767 91.5242 16.3821 91.5242H19.8073C20.2127 91.5242 20.541 91.8505 20.541 92.2522V95.4085C20.541 95.8108 20.2127 96.1365 19.8073 96.1365ZM17.1164 94.6799H19.0736V92.9808H17.1164V94.6799Z" fill="#3076F1"/>
<path d="M62.3773 83.755H58.9521V86.9113H62.3773V83.755Z" fill="#C2DAF4"/>
<path d="M62.3776 87.6393H58.9524C58.547 87.6393 58.2188 87.3136 58.2188 86.9113V83.755C58.2188 83.3527 58.547 83.027 58.9524 83.027H62.3776C62.783 83.027 63.1113 83.3533 63.1113 83.755V86.9113C63.1113 87.3136 62.7825 87.6393 62.3776 87.6393ZM59.6867 86.1827H61.6439V84.4836H59.6867V86.1827Z" fill="#3076F1"/>
<path d="M55.2826 83.755H51.8574V86.9113H55.2826V83.755Z" fill="#FFFEFF"/>
<path d="M55.2826 87.6393H51.8575C51.452 87.6393 51.1238 87.3136 51.1238 86.9113V83.755C51.1238 83.3527 51.452 83.027 51.8575 83.027H55.2826C55.6881 83.027 56.0163 83.3533 56.0163 83.755V86.9113C56.0163 87.3136 55.6881 87.6393 55.2826 87.6393ZM52.5917 86.1827H54.549V84.4836H52.5917V86.1827Z" fill="#3076F1"/>
<path d="M48.1874 83.755H44.7622V86.9113H48.1874V83.755Z" fill="#FFFEFF"/>
<path d="M48.1872 87.6393H44.762C44.3566 87.6393 44.0283 87.3136 44.0283 86.9113V83.755C44.0283 83.3527 44.3566 83.027 44.762 83.027H48.1872C48.5926 83.027 48.9209 83.3533 48.9209 83.755V86.9113C48.9209 87.3136 48.5926 87.6393 48.1872 87.6393ZM45.4963 86.1827H47.4535V84.4836H45.4963V86.1827Z" fill="#3076F1"/>
<path d="M41.0927 83.755H37.6675V86.9113H41.0927V83.755Z" fill="#C2DAF4"/>
<path d="M41.0927 87.6393H37.6675C37.2621 87.6393 36.9338 87.3136 36.9338 86.9113V83.755C36.9338 83.3527 37.2621 83.027 37.6675 83.027H41.0927C41.4981 83.027 41.8264 83.3533 41.8264 83.755V86.9113C41.8264 87.3136 41.4981 87.6393 41.0927 87.6393ZM38.4012 86.1827H40.3585V84.4836H38.4012V86.1827Z" fill="#3076F1"/>
<path d="M33.9974 83.755H30.5723V86.9113H33.9974V83.755Z" fill="#C2DAF4"/>
<path d="M33.9972 87.6393H30.5721C30.1666 87.6393 29.8384 87.3136 29.8384 86.9113V83.755C29.8384 83.3527 30.1666 83.027 30.5721 83.027H33.9972C34.4027 83.027 34.7309 83.3533 34.7309 83.755V86.9113C34.7309 87.3136 34.4027 87.6393 33.9972 87.6393ZM31.3063 86.1827H33.2636V84.4836H31.3063V86.1827Z" fill="#3076F1"/>
<path d="M26.9025 83.755H23.4773V86.9113H26.9025V83.755Z" fill="#C2DAF4"/>
<path d="M26.9028 87.6393H23.4776C23.0722 87.6393 22.7439 87.3136 22.7439 86.9113V83.755C22.7439 83.3527 23.0722 83.027 23.4776 83.027H26.9028C27.3082 83.027 27.6365 83.3533 27.6365 83.755V86.9113C27.6365 87.3136 27.3082 87.6393 26.9028 87.6393ZM24.2118 86.1827H26.1691V84.4836H24.2118V86.1827Z" fill="#3076F1"/>
<path d="M19.8075 83.755H16.3823V86.9113H19.8075V83.755Z" fill="#C2DAF4"/>
<path d="M19.8073 87.6393H16.3821C15.9767 87.6393 15.6484 87.3136 15.6484 86.9113V83.755C15.6484 83.3527 15.9767 83.027 16.3821 83.027H19.8073C20.2127 83.027 20.541 83.3533 20.541 83.755V86.9113C20.541 87.3136 20.2127 87.6393 19.8073 87.6393ZM17.1164 86.1827H19.0736V84.4836H17.1164V86.1827Z" fill="#3076F1"/>
<path d="M62.3773 75.2584H58.9521V78.4147H62.3773V75.2584Z" fill="#FFFEFF"/>
<path d="M62.3776 79.1427H58.9524C58.547 79.1427 58.2188 78.817 58.2188 78.4147V75.2584C58.2188 74.8561 58.547 74.5304 58.9524 74.5304H62.3776C62.783 74.5304 63.1113 74.8567 63.1113 75.2584V78.4147C63.1113 78.817 62.7825 79.1427 62.3776 79.1427ZM59.6867 77.6861H61.6439V75.987H59.6867V77.6861Z" fill="#3076F1"/>
<path d="M55.2826 75.2584H51.8574V78.4147H55.2826V75.2584Z" fill="#C2DAF4"/>
<path d="M55.2826 79.1427H51.8575C51.452 79.1427 51.1238 78.817 51.1238 78.4147V75.2584C51.1238 74.8561 51.452 74.5304 51.8575 74.5304H55.2826C55.6881 74.5304 56.0163 74.8567 56.0163 75.2584V78.4147C56.0163 78.817 55.6881 79.1427 55.2826 79.1427ZM52.5917 77.6861H54.549V75.987H52.5917V77.6861Z" fill="#3076F1"/>
<path d="M48.1874 75.2584H44.7622V78.4147H48.1874V75.2584Z" fill="#FFFEFF"/>
<path d="M48.1872 79.1427H44.762C44.3566 79.1427 44.0283 78.817 44.0283 78.4147V75.2584C44.0283 74.8561 44.3566 74.5304 44.762 74.5304H48.1872C48.5926 74.5304 48.9209 74.8567 48.9209 75.2584V78.4147C48.9209 78.817 48.5926 79.1427 48.1872 79.1427ZM45.4963 77.6861H47.4535V75.987H45.4963V77.6861Z" fill="#3076F1"/>
<path d="M41.0927 75.2584H37.6675V78.4147H41.0927V75.2584Z" fill="#FFFEFF"/>
<path d="M41.0927 79.1427H37.6675C37.2621 79.1427 36.9338 78.817 36.9338 78.4147V75.2584C36.9338 74.8561 37.2621 74.5304 37.6675 74.5304H41.0927C41.4981 74.5304 41.8264 74.8567 41.8264 75.2584V78.4147C41.8264 78.817 41.4981 79.1427 41.0927 79.1427ZM38.4012 77.6861H40.3585V75.987H38.4012V77.6861Z" fill="#3076F1"/>
<path d="M33.9974 75.2584H30.5723V78.4147H33.9974V75.2584Z" fill="#C2DAF4"/>
<path d="M33.9972 79.1427H30.5721C30.1666 79.1427 29.8384 78.817 29.8384 78.4147V75.2584C29.8384 74.8561 30.1666 74.5304 30.5721 74.5304H33.9972C34.4027 74.5304 34.7309 74.8567 34.7309 75.2584V78.4147C34.7309 78.817 34.4027 79.1427 33.9972 79.1427ZM31.3063 77.6861H33.2636V75.987H31.3063V77.6861Z" fill="#3076F1"/>
<path d="M26.9025 75.2584H23.4773V78.4147H26.9025V75.2584Z" fill="#FFFEFF"/>
<path d="M26.9028 79.1427H23.4776C23.0722 79.1427 22.7439 78.817 22.7439 78.4147V75.2584C22.7439 74.8561 23.0722 74.5304 23.4776 74.5304H26.9028C27.3082 74.5304 27.6365 74.8567 27.6365 75.2584V78.4147C27.6365 78.817 27.3082 79.1427 26.9028 79.1427ZM24.2118 77.6861H26.1691V75.987H24.2118V77.6861Z" fill="#3076F1"/>
<path d="M19.8075 75.2584H16.3823V78.4147H19.8075V75.2584Z" fill="#C2DAF4"/>
<path d="M19.8073 79.1427H16.3821C15.9767 79.1427 15.6484 78.817 15.6484 78.4147V75.2584C15.6484 74.8561 15.9767 74.5304 16.3821 74.5304H19.8073C20.2127 74.5304 20.541 74.8567 20.541 75.2584V78.4147C20.541 78.817 20.2127 79.1427 19.8073 79.1427ZM17.1164 77.6861H19.0736V75.987H17.1164V77.6861Z" fill="#3076F1"/>
<path d="M69.7169 83.755H66.2917V86.9113H69.7169V83.755Z" fill="#C2DAF4"/>
<path d="M69.7172 87.6393H66.292C65.8866 87.6393 65.5583 87.3136 65.5583 86.9113V83.755C65.5583 83.3527 65.8866 83.027 66.292 83.027H69.7172C70.1226 83.027 70.4509 83.3533 70.4509 83.755V86.9113C70.4509 87.3136 70.1221 87.6393 69.7172 87.6393ZM67.0263 86.1827H68.9835V84.4836H67.0263V86.1827Z" fill="#3076F1"/>
<path d="M69.7169 75.2584H66.2917V78.4147H69.7169V75.2584Z" fill="#C2DAF4"/>
<path d="M69.7172 79.1427H66.292C65.8866 79.1427 65.5583 78.817 65.5583 78.4147V75.2584C65.5583 74.8561 65.8866 74.5304 66.292 74.5304H69.7172C70.1226 74.5304 70.4509 74.8567 70.4509 75.2584V78.4147C70.4509 78.817 70.1221 79.1427 69.7172 79.1427ZM67.0263 77.6861H68.9835V75.987H67.0263V77.6861Z" fill="#3076F1"/>
<path d="M76.8124 83.755H73.3872V86.9113H76.8124V83.755Z" fill="#FFFEFF"/>
<path d="M76.8124 87.6393H73.3873C72.9818 87.6393 72.6536 87.3136 72.6536 86.9113V83.755C72.6536 83.3527 72.9818 83.027 73.3873 83.027H76.8124C77.2179 83.027 77.5461 83.3533 77.5461 83.755V86.9113C77.5461 87.3136 77.2173 87.6393 76.8124 87.6393ZM74.1215 86.1827H76.0787V84.4836H74.1215V86.1827Z" fill="#3076F1"/>
<path d="M76.8124 75.2584H73.3872V78.4147H76.8124V75.2584Z" fill="#C2DAF4"/>
<path d="M76.8124 79.1427H73.3873C72.9818 79.1427 72.6536 78.817 72.6536 78.4147V75.2584C72.6536 74.8561 72.9818 74.5304 73.3873 74.5304H76.8124C77.2179 74.5304 77.5461 74.8567 77.5461 75.2584V78.4147C77.5461 78.817 77.2173 79.1427 76.8124 79.1427ZM74.1215 77.6861H76.0787V75.987H74.1215V77.6861Z" fill="#3076F1"/>
<path d="M84.152 83.755H80.7268V86.9113H84.152V83.755Z" fill="#C2DAF4"/>
<path d="M84.152 87.6393H80.7269C80.3214 87.6393 79.9932 87.3136 79.9932 86.9113V83.755C79.9932 83.3527 80.3214 83.027 80.7269 83.027H84.152C84.5575 83.027 84.8857 83.3533 84.8857 83.755V86.9113C84.8857 87.3136 84.5569 87.6393 84.152 87.6393ZM81.4611 86.1827H83.4183V84.4836H81.4611V86.1827Z" fill="#3076F1"/>
<path d="M84.152 75.2584H80.7268V78.4147H84.152V75.2584Z" fill="#C2DAF4"/>
<path d="M84.152 79.1427H80.7269C80.3214 79.1427 79.9932 78.817 79.9932 78.4147V75.2584C79.9932 74.8561 80.3214 74.5304 80.7269 74.5304H84.152C84.5575 74.5304 84.8857 74.8567 84.8857 75.2584V78.4147C84.8857 78.817 84.5569 79.1427 84.152 79.1427ZM81.4611 77.6861H83.4183V75.987H81.4611V77.6861Z" fill="#3076F1"/>
<path d="M76.8124 92.0092H73.3872V95.1654H76.8124V92.0092Z" fill="#C2DAF4"/>
<path d="M76.8124 95.8935H73.3873C72.9818 95.8935 72.6536 95.5677 72.6536 95.1654V92.0092C72.6536 91.6069 72.9818 91.2811 73.3873 91.2811H76.8124C77.2179 91.2811 77.5461 91.6074 77.5461 92.0092V95.1654C77.5461 95.5677 77.2173 95.8935 76.8124 95.8935ZM74.1215 94.4368H76.0787V92.7377H74.1215V94.4368Z" fill="#3076F1"/>
<path d="M84.152 92.0092H80.7268V95.1654H84.152V92.0092Z" fill="#FFFEFF"/>
<path d="M84.152 95.8935H80.7269C80.3214 95.8935 79.9932 95.5677 79.9932 95.1654V92.0092C79.9932 91.6069 80.3214 91.2811 80.7269 91.2811H84.152C84.5575 91.2811 84.8857 91.6074 84.8857 92.0092V95.1654C84.8857 95.5677 84.5569 95.8935 84.152 95.8935ZM81.4611 94.4368H83.4183V92.7377H81.4611V94.4368Z" fill="#3076F1"/>
<path d="M105.926 70.16C102.012 70.16 98.8308 73.5588 98.8308 77.4431V86.1828C98.8308 90.3101 102.012 93.4659 105.926 93.4659C110.086 93.4659 113.266 90.3096 113.266 86.1828V77.4431C113.266 73.5588 110.085 70.16 105.926 70.16Z" fill="#C2DAF4"/>
<path d="M105.926 94.1944C101.536 94.1944 98.0972 90.6752 98.0972 86.1827V77.443C98.0972 73.1004 101.682 69.4314 105.926 69.4314C110.378 69.4314 114 73.0255 114 77.443V86.1827C114 90.6752 110.454 94.1944 105.926 94.1944ZM105.926 70.8886C102.478 70.8886 99.5651 73.89 99.5651 77.443V86.1827C99.5651 89.8584 102.359 92.7372 105.926 92.7372C109.692 92.7372 112.532 89.9194 112.532 86.1827V77.443C112.532 73.829 109.568 70.8886 105.926 70.8886Z" fill="#3076F1"/>
<path d="M109.85 79.8707H98.8401C98.4347 79.8707 98.1064 79.545 98.1064 79.1427C98.1064 78.7404 98.4353 78.4147 98.8401 78.4147H109.85C110.255 78.4147 110.584 78.741 110.584 79.1427C110.584 79.5444 110.255 79.8707 109.85 79.8707Z" fill="#495096"/>
<path d="M105.936 86.6683C105.53 86.6683 105.202 86.3425 105.202 85.9402V79.1427C105.202 78.7404 105.531 78.4147 105.936 78.4147C106.34 78.4147 106.669 78.741 106.669 79.1427V85.9402C106.669 86.3425 106.341 86.6683 105.936 86.6683Z" fill="#495096"/>
<path d="M105.936 70.8885C105.53 70.8885 105.202 70.5627 105.202 70.1604V29.6183H88.8103C88.4049 29.6183 88.0767 29.2926 88.0767 28.8903C88.0767 28.488 88.4055 28.1622 88.8103 28.1622H105.936C106.342 28.1622 106.67 28.4885 106.67 28.8903V70.161C106.67 70.5633 106.342 70.889 105.936 70.889L105.936 70.8885Z" fill="#495096"/>
<path d="M12.9665 85.9402H0.733687C0.328258 85.9402 0 85.6145 0 85.2122V36.1729C0 35.7706 0.328258 35.4448 0.733687 35.4448H16.1467C16.5521 35.4448 16.8804 35.7711 16.8804 36.1729C16.8804 36.5746 16.5521 36.9009 16.1467 36.9009H1.46793V84.4836H12.9665C13.3719 84.4836 13.7002 84.8099 13.7002 85.2116C13.7002 85.6134 13.3719 85.9397 12.9665 85.9397V85.9402Z" fill="#495096"/>
<path d="M94.917 54.6228H10.0212V59.2351C10.0212 61.6628 11.9785 63.605 14.425 63.605H90.5132C92.9598 63.605 94.917 61.6628 94.917 59.2351V54.6228Z" fill="#C2DAF4"/>
<path d="M90.513 64.3336H14.4248C11.5919 64.3336 9.28735 62.0463 9.28735 59.2351V54.6228C9.28735 54.2205 9.61561 53.8948 10.021 53.8948H94.9168C95.3222 53.8948 95.6505 54.2211 95.6505 54.6228V59.2351C95.6505 62.0463 93.3454 64.3336 90.5125 64.3336H90.513ZM10.7553 55.3514V59.2357C10.7553 61.2777 12.3675 62.8769 14.4248 62.8769H90.513C92.5709 62.8769 94.1826 61.2772 94.1826 59.2357V55.3514H10.7553Z" fill="#3076F1"/>
<path d="M16.1377 12.1385H36.6888V40.7853H68.2496V12.1385H88.8007V54.6228H16.1377V12.1385Z" fill="#FFFEFF"/>
<path d="M88.8002 55.3514H16.1377C15.7323 55.3514 15.4041 55.0257 15.4041 54.6234V12.1386C15.4041 11.7362 15.7323 11.4105 16.1377 11.4105H36.6888C37.0942 11.4105 37.4225 11.7362 37.4225 12.1386V40.0567H67.5154V12.1386C67.5154 11.7362 67.8437 11.4105 68.2491 11.4105H88.8002C89.2056 11.4105 89.5339 11.7362 89.5339 12.1386V54.6228C89.5339 55.0251 89.205 55.3509 88.8002 55.3509V55.3514ZM16.8714 53.8948H88.0665V12.8666H68.9834V40.7847C68.9834 41.187 68.6545 41.5128 68.2497 41.5128H36.6888C36.2834 41.5128 35.9551 41.187 35.9551 40.7847V12.8666H16.872V53.8943L16.8714 53.8948Z" fill="#3076F1"/>
<path d="M21.2751 17.965H36.6882V40.7852H68.249V17.965H83.662V54.6228H21.2751V17.965Z" fill="#C2DAF4"/>
<path d="M83.6629 55.3514H21.2754C20.87 55.3514 20.5417 55.0257 20.5417 54.6234V17.965C20.5417 17.5627 20.87 17.2369 21.2754 17.2369H36.6885C37.0939 17.2369 37.4221 17.5627 37.4221 17.965V40.0567H67.5151V17.965C67.5151 17.5627 67.8433 17.2369 68.2487 17.2369H83.6618C84.0672 17.2369 84.3955 17.5627 84.3955 17.965V54.6228C84.3955 55.0251 84.0667 55.3508 83.6618 55.3508L83.6629 55.3514ZM22.0097 53.8948H82.9292V18.693H68.9836V40.7847C68.9836 41.187 68.6547 41.5127 68.2499 41.5127H36.689C36.2836 41.5127 35.9553 41.187 35.9553 40.7847V18.693H22.0102V53.8942L22.0097 53.8948Z" fill="#3076F1"/>
<path d="M52.3468 57.2935C51.3682 57.2935 50.6345 58.0215 50.6345 59.2356C50.6345 60.2067 51.3682 60.9347 52.3468 60.9347C53.5704 60.9347 54.3041 60.2067 54.3041 59.2356C54.3041 58.0215 53.5704 57.2935 52.3468 57.2935Z" fill="#FFFEFF"/>
<path d="M52.3469 61.6633C50.9523 61.6633 49.9004 60.6195 49.9004 59.2356C49.9004 57.663 50.9064 56.5654 52.3469 56.5654C53.9821 56.5654 55.0379 57.6136 55.0379 59.2356C55.0379 60.665 53.9312 61.6633 52.3469 61.6633ZM52.3469 58.022C51.734 58.022 51.3683 58.476 51.3683 59.2362C51.3683 59.8083 51.7704 60.2072 52.3469 60.2072C53.1131 60.2072 53.5705 59.8443 53.5705 59.2362C53.5705 58.4194 53.1701 58.022 52.3469 58.022Z" fill="#3076F1"/>
</svg>
