
<svg width="116" height="90" viewBox="0 0 116 90" fill="none" xmlns="http://www.w3.org/2000/svg">
<path d="M8.34847 6.30444H115.191V88.3649H8.34847V6.30444Z" fill="#3076F1" fill-opacity="0.26"/>
<path d="M8.34845 89.1723H115.191C115.638 89.1723 116 88.8113 116 88.3654V6.30441C116 5.85855 115.638 5.49756 115.191 5.49756H8.34845C7.90134 5.49756 7.53934 5.85855 7.53934 6.30441V88.3648C7.53934 88.8107 7.90196 89.1717 8.34845 89.1717V89.1723ZM114.382 87.558H9.15817V7.11187H114.382V87.558Z" fill="#3076F1"/>
<path d="M107.907 0.923584H1.33379V83.2533H8.34869V6.30461H107.907V0.923584Z" fill="#FFFEFF"/>
<path d="M1.33327 84.0608H8.34819C8.79529 84.0608 9.15729 83.6998 9.15729 83.2539V7.11204H107.906C108.353 7.11204 108.715 6.75105 108.715 6.30519V0.923546C108.715 0.477689 108.353 0.116699 107.906 0.116699H1.33327C0.886177 0.116699 0.524178 0.477689 0.524178 0.923546V83.2533C0.524178 83.6992 0.886787 84.0602 1.33327 84.0602V84.0608ZM7.53847 82.4465H2.14238V1.73101H107.097V5.49773H8.34819C7.90108 5.49773 7.53909 5.85872 7.53909 6.30458V82.4458L7.53847 82.4465Z" fill="#3076F1"/>
<path d="M33.1705 42.0889H15.6336V72.7607H40.4556V63.8817H33.1705V42.0889Z" fill="#3076F1" fill-opacity="0.26"/>
<path d="M15.6336 73.5676H40.4555C40.9026 73.5676 41.2646 73.2066 41.2646 72.7607V63.8817C41.2646 63.4358 40.9026 63.0749 40.4555 63.0749H33.9802V42.0888C33.9802 41.643 33.6182 41.282 33.1711 41.282H15.6336C15.1865 41.282 14.8245 41.6436 14.8245 42.0888V72.7607C14.8245 73.2066 15.1871 73.5676 15.6336 73.5676ZM39.6464 71.9532H16.4433V42.8957H32.3614V63.8817C32.3614 64.3276 32.724 64.6885 33.1705 64.6885H39.6458V71.9526L39.6464 71.9532Z" fill="#495096"/>
<path d="M33.1702 33.2097H57.9922V63.8816H33.1702V33.2097Z" fill="#3076F1" fill-opacity="0.26"/>
<path d="M33.1707 64.6889H57.9927C58.4398 64.6889 58.8018 64.3279 58.8018 63.882V33.2102C58.8018 32.7643 58.4398 32.4033 57.9927 32.4033H33.1707C32.7236 32.4033 32.3616 32.7649 32.3616 33.2102V63.882C32.3616 64.3279 32.7242 64.6889 33.1707 64.6889ZM57.1836 63.0746H33.9804V34.017H57.1836V63.0746Z" fill="#495096"/>
<path d="M15.6328 42.0889H33.1704V47.7393H15.6328V42.0889Z" fill="#FFFEFF"/>
<path d="M15.6338 48.5461H33.1714C33.6185 48.5461 33.9805 48.1851 33.9805 47.7392V42.0888C33.9805 41.643 33.6185 41.282 33.1714 41.282H15.6338C15.1867 41.282 14.8247 41.6436 14.8247 42.0888V47.7392C14.8247 48.1851 15.1873 48.5461 15.6338 48.5461ZM32.3616 46.9318H16.4435V42.8963H32.3616V46.9318Z" fill="#495096"/>
<path d="M33.1702 33.2097H57.9922V38.8601H33.1702V33.2097Z" fill="#3076F1" fill-opacity="0.26"/>
<path d="M33.1707 39.6669H57.9927C58.4398 39.6669 58.8018 39.3059 58.8018 38.8601V33.2097C58.8018 32.7638 58.4398 32.4028 57.9927 32.4028H33.1707C32.7236 32.4028 32.3616 32.7644 32.3616 33.2097V38.8601C32.3616 39.3059 32.7242 39.6669 33.1707 39.6669ZM57.1836 38.0526H33.9804V34.0171H57.1836V38.0526Z" fill="#495096"/>
<path d="M43.9521 45.5861H52.8559C53.303 45.5861 53.665 45.2251 53.665 44.7793C53.665 44.3334 53.3024 43.9724 52.8559 43.9724H43.9521C43.505 43.9724 43.143 44.334 43.143 44.7793C43.143 45.2245 43.505 45.5861 43.9521 45.5861Z" fill="#3076F1"/>
<path d="M38.2865 50.4291H52.8559C53.303 50.4291 53.665 50.0681 53.665 49.6223C53.665 49.1764 53.3024 48.8154 52.8559 48.8154H38.2865C37.8394 48.8154 37.4774 49.177 37.4774 49.6223C37.4774 50.0675 37.8394 50.4291 38.2865 50.4291Z" fill="#3076F1"/>
<path d="M38.2865 55.0031H52.8559C53.303 55.0031 53.665 54.6421 53.665 54.1963C53.665 53.7504 53.3024 53.3894 52.8559 53.3894H38.2865C37.8394 53.3894 37.4774 53.751 37.4774 54.1963C37.4774 54.6415 37.8394 55.0031 38.2865 55.0031Z" fill="#3076F1"/>
<path d="M38.2865 59.8461H52.8559C53.303 59.8461 53.665 59.4851 53.665 59.0393C53.665 58.5934 53.3024 58.2324 52.8559 58.2324H38.2865C37.8394 58.2324 37.4774 58.594 37.4774 59.0393C37.4774 59.4845 37.8394 59.8461 38.2865 59.8461Z" fill="#3076F1"/>
<path d="M19.4003 67.9176H28.3042C28.7513 67.9176 29.1133 67.5567 29.1133 67.1108C29.1133 66.6649 28.7507 66.304 28.3042 66.304H19.4003C18.9532 66.304 18.5912 66.6656 18.5912 67.1108C18.5912 67.556 18.9532 67.9176 19.4003 67.9176Z" fill="#3076F1"/>
<path d="M19.4003 63.613H28.3042C28.7513 63.613 29.1133 63.252 29.1133 62.8061C29.1133 62.3603 28.7507 61.9993 28.3042 61.9993H19.4003C18.9532 61.9993 18.5912 62.3609 18.5912 62.8061C18.5912 63.2514 18.9532 63.613 19.4003 63.613Z" fill="#3076F1"/>
<path d="M100.082 13.5693H108.176V21.6409H100.082V13.5693Z" fill="#3076F1" fill-opacity="0.26"/>
<path d="M100.082 22.4477H108.176C108.623 22.4477 108.985 22.0867 108.985 21.6408V13.5693C108.985 13.1234 108.623 12.7625 108.176 12.7625H100.082C99.635 12.7625 99.273 13.1234 99.273 13.5693V21.6408C99.273 22.0867 99.635 22.4477 100.082 22.4477ZM107.367 20.8334H100.891V14.3761H107.367V20.8334Z" fill="#3076F1"/>
<path d="M100.082 27.8286H108.176V35.9002H100.082V27.8286Z" fill="#FFFEFF"/>
<path d="M100.082 36.7077H108.176C108.623 36.7077 108.985 36.3467 108.985 35.9009V27.8293C108.985 27.3835 108.623 27.0225 108.176 27.0225H100.082C99.635 27.0225 99.273 27.3841 99.273 27.8293V35.9009C99.273 36.3467 99.635 36.7077 100.082 36.7077ZM107.367 35.0934H100.891V28.6362H107.367V35.0934Z" fill="#3076F1"/>
<path d="M100.082 42.0889H108.176V50.1604H100.082V42.0889Z" fill="#3076F1" fill-opacity="0.26"/>
<path d="M100.082 50.9672H108.176C108.623 50.9672 108.985 50.6062 108.985 50.1604V42.0888C108.985 41.643 108.623 41.282 108.176 41.282H100.082C99.635 41.282 99.273 41.6436 99.273 42.0888V50.1604C99.273 50.6062 99.635 50.9672 100.082 50.9672ZM107.367 49.3529H100.891V42.8957H107.367V49.3529Z" fill="#3076F1"/>
<path d="M100.082 56.3481H108.176V64.6884H100.082V56.3481Z" fill="#3076F1" fill-opacity="0.26"/>
<path d="M100.082 65.496H108.176C108.623 65.496 108.985 65.135 108.985 64.6891V56.3488C108.985 55.903 108.623 55.542 108.176 55.542H100.082C99.635 55.542 99.273 55.9036 99.273 56.3488V64.6891C99.273 65.135 99.635 65.496 100.082 65.496ZM107.367 63.8817H100.891V57.1551H107.367V63.8817Z" fill="#3076F1"/>
<path d="M74.1702 71.415H108.166C108.613 71.415 108.975 71.054 108.975 70.6081C108.975 70.1623 108.613 69.8013 108.166 69.8013H74.1702C73.7231 69.8013 73.3605 70.1629 73.3605 70.6081C73.3605 71.0534 73.7225 71.415 74.1702 71.415Z" fill="#495096"/>
<path d="M50.1579 77.0656H108.166C108.613 77.0656 108.975 76.7046 108.975 76.2588C108.975 75.8129 108.613 75.4519 108.166 75.4519H50.1579C49.7108 75.4519 49.3488 75.8135 49.3488 76.2588C49.3488 76.704 49.7108 77.0656 50.1579 77.0656Z" fill="#495096"/>
<path d="M50.1579 82.9845H108.166C108.613 82.9845 108.975 82.6236 108.975 82.1777C108.975 81.7318 108.613 81.3708 108.166 81.3708H50.1579C49.7108 81.3708 49.3488 81.7325 49.3488 82.1777C49.3488 82.6229 49.7108 82.9845 50.1579 82.9845Z" fill="#495096"/>
<path d="M16.9715 20.0263H87.6601C88.1072 20.0263 88.4692 19.6653 88.4692 19.2194C88.4692 18.7736 88.1072 18.4126 87.6601 18.4126H16.9715C16.5243 18.4126 16.1623 18.7736 16.1623 19.2194C16.1623 19.6653 16.5243 20.0263 16.9715 20.0263Z" fill="#495096"/>
</svg>