
<svg width="91" height="92" viewBox="0 0 91 92" fill="none" xmlns="http://www.w3.org/2000/svg">
<path d="M5.91919 4.73828H90.1654V73.2445H53.8627L47.9437 79.1672L42.2219 73.2445H5.91919V4.73828Z" fill="#3076F1" fill-opacity="0.26"/>
<path d="M47.9434 79.7597H47.9384C47.7797 79.7584 47.6281 79.6934 47.5176 79.5792L41.9708 73.837H5.91881C5.59187 73.837 5.32715 73.5721 5.32715 73.2449V4.73829C5.32715 4.41113 5.59187 4.14624 5.91881 4.14624H90.165C90.4919 4.14624 90.7566 4.41113 90.7566 4.73829V73.2445C90.7566 73.5717 90.4915 73.8365 90.165 73.8365H54.1072L48.3619 79.586C48.2509 79.697 48.1003 79.7593 47.9434 79.7593V79.7597ZM6.51093 72.6524H42.222C42.3825 72.6524 42.5358 72.7174 42.6477 72.8329L47.9506 78.3225L53.4438 72.8257C53.5547 72.7147 53.7053 72.652 53.8623 72.652H89.5733V5.33034H6.51048V72.652L6.51093 72.6524Z" fill="#3076F1"/>
<path d="M68.0756 87.6565H25.0648C24.7379 87.6565 24.4731 87.3916 24.4731 87.0645C24.4731 86.7373 24.7379 86.4724 25.0648 86.4724H68.0756C68.4026 86.4724 68.6673 86.7378 68.6673 87.0645C68.6673 87.3912 68.4026 87.6565 68.0756 87.6565Z" fill="#495096"/>
<path d="M18.9406 91.4076H73.3946V82.5237H18.9406L8.87817 87.0642L18.9406 91.4076Z" fill="#3076F1" fill-opacity="0.26"/>
<path d="M73.3945 92H18.9404C18.8597 92 18.7799 91.9833 18.7059 91.9517L8.64401 87.6083C8.4289 87.5154 8.28865 87.3037 8.28639 87.0691C8.28459 86.8344 8.42123 86.621 8.63499 86.5244L18.6969 81.9839C18.7736 81.9496 18.8566 81.9315 18.9404 81.9315H73.3945C73.7215 81.9315 73.9862 82.1969 73.9862 82.5236V91.4079C73.9862 91.7351 73.721 92 73.3945 92ZM19.0627 90.8154H72.8028V83.1161H19.0676L10.3446 87.0528L19.0627 90.8159V90.8154Z" fill="#3076F1"/>
<path d="M77.3402 82.5237H73.3943V91.408H77.3402V82.5237Z" fill="#3076F1" fill-opacity="0.26"/>
<path d="M77.3403 92H73.3944C73.0675 92 72.8027 91.7351 72.8027 91.4079V82.5236C72.8027 82.1964 73.0675 81.9315 73.3944 81.9315H77.3403C77.6673 81.9315 77.932 82.1969 77.932 82.5236V91.4079C77.932 91.7351 77.6668 92 77.3403 92ZM73.9861 90.8154H76.7482V83.1161H73.9861V90.8154Z" fill="#3076F1"/>
<path d="M77.3403 91.4076H85.6268C86.6135 91.4076 87.2052 90.6179 87.2052 89.8282V83.7082C87.2052 83.1162 86.8106 82.5237 86.2184 82.5237H77.3398V91.408L77.3403 91.4076Z" fill="#3076F1" fill-opacity="0.26"/>
<path d="M85.6272 92H77.3407C77.0137 92 76.749 91.7351 76.749 91.4079V82.5236C76.749 82.1964 77.0137 81.9315 77.3407 81.9315H86.2193C87.0897 81.9315 87.7977 82.7284 87.7977 83.7086V89.8285C87.7977 90.8962 86.9859 92 85.6276 92H85.6272ZM77.9328 90.8154H85.6272C86.268 90.8154 86.6139 90.3068 86.6139 89.8281V83.7081C86.6139 83.4283 86.4452 83.1161 86.2193 83.1161H77.9328V90.8154Z" fill="#3076F1"/>
<path d="M18.9406 91.4076H24.662V82.5237H18.9406L8.87817 87.0642L18.9406 91.4076Z" fill="#FFFEFF"/>
<path d="M24.6618 92H18.9404C18.8597 92 18.7799 91.9837 18.7059 91.9517L8.64401 87.6083C8.4289 87.5154 8.28865 87.3037 8.28639 87.0691C8.28459 86.8344 8.42123 86.621 8.63499 86.5244L18.6969 81.9839C18.7736 81.9496 18.8566 81.9315 18.9404 81.9315H24.6618C24.9888 81.9315 25.2535 82.1969 25.2535 82.5236V91.4079C25.2535 91.7351 24.9888 92 24.6618 92ZM19.0622 90.8154H24.0697V83.1161H19.0672L10.3441 87.0528L19.0622 90.8159V90.8154Z" fill="#3076F1"/>
<path d="M32.949 33.1674C36.5004 33.1674 39.46 35.9313 39.46 39.485C39.46 43.0386 36.5008 46.0002 32.949 46.0002C29.3972 46.0002 26.6355 43.0391 26.6355 39.485C26.6355 35.9309 29.3977 33.1674 32.949 33.1674Z" fill="#FFFEFF"/>
<path d="M32.9486 46.5924C29.1411 46.5924 26.043 43.4043 26.043 39.4851C26.043 35.5659 29.0762 32.5754 32.9486 32.5754C36.821 32.5754 40.0513 35.6751 40.0513 39.4851C40.0513 43.295 36.7985 46.5924 32.9486 46.5924ZM32.9486 33.7595C29.74 33.7595 27.2268 36.2744 27.2268 39.4851C27.2268 42.6958 29.7936 45.4078 32.9486 45.4078C36.1036 45.4078 38.8675 42.6958 38.8675 39.4851C38.8675 36.2744 36.2122 33.7595 32.9486 33.7595Z" fill="#3076F1"/>
<path d="M35.7109 33.7594C37.4868 34.5491 38.6701 36.1285 39.2622 37.9055H39.0647C37.2888 37.9055 35.5134 37.1158 34.3296 35.9313C34.9213 35.3392 35.5134 34.5496 35.7104 33.7599L35.7109 33.7594Z" fill="#3076F1" fill-opacity="0.26"/>
<path d="M39.2663 38.4978C39.2663 38.4978 39.264 38.4978 39.2622 38.4978H39.0647C37.1815 38.4978 35.2549 37.695 33.9111 36.3502C33.6797 36.1192 33.6797 35.7438 33.9111 35.5127C34.5478 34.8755 34.9943 34.1842 35.1363 33.6161C35.1787 33.4464 35.2942 33.3043 35.4511 33.2275C35.6085 33.1508 35.7911 33.1477 35.9512 33.2185C37.7294 34.0096 39.0949 35.5827 39.8016 37.6535C39.8376 37.7302 39.8579 37.8155 39.8579 37.9057C39.8579 38.2329 39.5932 38.4978 39.2663 38.4978ZM35.1702 35.8931C36.0721 36.63 37.2243 37.1241 38.3734 37.269C37.8299 36.1079 37.025 35.1864 36.0342 34.5935C35.7965 35.0948 35.4687 35.5434 35.1706 35.8936L35.1702 35.8931Z" fill="#3076F1"/>
<path d="M32.9487 33.1674C33.9354 33.1674 34.9217 33.365 35.7109 33.7594C34.9217 36.1285 32.5541 38.1028 29.5944 38.1028C28.6082 38.1028 27.819 37.7079 26.8323 37.5107C27.8185 34.944 30.1861 33.1674 32.9487 33.1674Z" fill="#FFFEFF"/>
<path d="M29.5946 38.6954C28.8789 38.6954 28.2665 38.5158 27.6744 38.342C27.3655 38.2513 27.0462 38.1579 26.7161 38.0916C26.5452 38.0573 26.3977 37.9495 26.3134 37.7965C26.229 37.6435 26.2169 37.4612 26.2796 37.2983C27.3822 34.4292 30 32.5754 32.948 32.5754C34.056 32.5754 35.1311 32.8078 35.9749 33.2302C36.2382 33.362 36.3649 33.6675 36.2716 33.9473C35.3404 36.7428 32.5944 38.6958 29.5942 38.6958L29.5946 38.6954ZM27.6595 37.1047C27.7777 37.1376 27.8931 37.1719 28.0077 37.2053C28.5664 37.3696 29.0485 37.5108 29.5946 37.5108C31.9058 37.5108 34.0339 36.1246 34.9512 34.0808C34.3582 33.8724 33.6655 33.76 32.9489 33.76C30.7116 33.76 28.6994 35.0524 27.66 37.1047H27.6595Z" fill="#3076F1"/>
<path d="M28.8052 48.1716L32.7512 51.9225L36.8946 48.1716L44.9836 51.7253V58.6349H33.3433H20.7158V51.7253L28.8052 48.1716Z" fill="#3076F1" fill-opacity="0.26"/>
<path d="M44.9837 59.2274H20.7159C20.389 59.2274 20.1243 58.9625 20.1243 58.6354V51.7257C20.1243 51.4906 20.2632 51.2781 20.4783 51.1833L28.5672 47.6297C28.7855 47.534 29.0398 47.5782 29.213 47.7425L32.7612 51.1152L36.4975 47.7326C36.6706 47.576 36.9187 47.5358 37.1324 47.6292L45.2218 51.1829C45.4369 51.2772 45.5758 51.4902 45.5758 51.7253V58.6349C45.5758 58.9621 45.3107 59.227 44.9837 59.227V59.2274ZM21.3081 58.0429H44.3921V52.112L37.0075 48.8679L33.1486 52.3615C32.9191 52.5696 32.5687 52.5655 32.3436 52.3516L28.6831 48.872L21.3081 52.1116V58.0424V58.0429Z" fill="#3076F1"/>
<path d="M37.0997 53.502H28.6157C28.4542 53.502 28.3 53.4361 28.1886 53.3197C28.0772 53.2032 28.0177 53.0462 28.0244 52.8851L28.2215 48.1469C28.235 47.8202 28.5034 47.5598 28.8375 47.5797C29.164 47.5932 29.4179 47.8694 29.4044 48.1961L29.233 52.3174H36.508V48.1713C36.508 47.8441 36.7727 47.5792 37.0997 47.5792C37.4266 47.5792 37.6913 47.8446 37.6913 48.1713V52.9095C37.6913 53.2366 37.4266 53.5015 37.0997 53.5015V53.502Z" fill="#495096"/>
<path d="M35.9079 45.4078V49.1587L32.7511 51.9226H32.5536L29.9885 49.3559V45.2097C30.7777 45.8018 31.9615 45.9994 32.9482 45.9994C34.132 45.9994 35.1183 45.8018 35.9074 45.4074L35.9079 45.4078Z" fill="#FFFEFF"/>
<path d="M32.7512 52.5149H32.5537C32.3968 52.5149 32.2461 52.4527 32.1352 52.3417L29.5701 49.7749C29.4592 49.6639 29.3965 49.5132 29.3965 49.3561V45.21C29.3965 44.9857 29.5232 44.7808 29.7234 44.6802C29.9241 44.58 30.1636 44.6017 30.3431 44.7362C30.9113 45.1631 31.8606 45.4076 32.9474 45.4076C34.0342 45.4076 34.9397 45.2294 35.6419 44.8779C35.8254 44.7863 36.0433 44.7957 36.2178 44.904C36.3923 45.0119 36.4987 45.2023 36.4987 45.4076V49.1585C36.4987 49.3295 36.4252 49.492 36.2967 49.6043L33.1399 52.3683C33.0322 52.4626 32.8937 52.5149 32.7503 52.5149H32.7512ZM30.5807 49.1111L32.6727 51.2045L35.3159 48.8904V46.2763C34.6232 46.4866 33.8304 46.5926 32.9483 46.5926C32.3796 46.5926 31.4502 46.5308 30.5807 46.1978V49.1116V49.1111Z" fill="#3076F1"/>
<path d="M63.3323 33.1674C66.8837 33.1674 69.8434 35.9313 69.8434 39.485C69.8434 43.0386 66.8841 46.0002 63.3323 46.0002C59.7805 46.0002 56.8213 43.0391 56.8213 39.485C56.8213 35.9309 59.7805 33.1674 63.3323 33.1674Z" fill="#3076F1" fill-opacity="0.26"/>
<path d="M63.3324 46.5924C59.4825 46.5924 56.2297 43.3375 56.2297 39.4851C56.2297 35.6327 59.4158 32.5754 63.3324 32.5754C67.2491 32.5754 70.4351 35.6751 70.4351 39.4851C70.4351 43.295 67.1823 46.5924 63.3324 46.5924ZM63.3324 33.7595C60.0688 33.7595 57.4135 36.3281 57.4135 39.4851C57.4135 42.6421 60.1238 45.4078 63.3324 45.4078C66.5411 45.4078 69.2514 42.6958 69.2514 39.4851C69.2514 36.2744 66.5961 33.7595 63.3324 33.7595Z" fill="#3076F1"/>
<path d="M66.0947 33.7594C67.6731 34.5491 69.054 36.1285 69.6461 37.9055H69.2515C67.4756 37.9055 65.8972 37.1158 64.7139 35.9313C65.3055 35.3392 65.7006 34.5496 66.0947 33.7599V33.7594Z" fill="#3076F1" fill-opacity="0.26"/>
<path d="M69.6494 38.4976C69.6494 38.4976 69.6471 38.4976 69.6458 38.4976H69.2512C67.4392 38.4976 65.6786 37.735 64.2946 36.3501C64.0633 36.119 64.0633 35.7436 64.2946 35.5125C64.8186 34.9882 65.1812 34.263 65.5645 33.4945C65.7111 33.2021 66.0669 33.0839 66.3587 33.2296C68.08 34.0911 69.5407 35.7815 70.1847 37.6524C70.2207 37.7291 70.241 37.8149 70.241 37.9056C70.241 38.2327 69.9759 38.4976 69.6494 38.4976ZM65.537 35.8866C66.4872 36.6939 67.6006 37.1799 68.7519 37.2896C68.2085 36.1921 67.3467 35.2206 66.342 34.5802C66.1061 35.0342 65.8504 35.4819 65.537 35.8866Z" fill="#3076F1"/>
<path d="M63.3328 33.1674C64.3195 33.1674 65.3058 33.365 66.0949 33.7594C65.1082 36.1285 62.7407 38.1028 59.979 38.1028C58.9922 38.1028 58.006 37.7079 57.2168 37.5107C58.006 34.944 60.5711 33.1674 63.3328 33.1674Z" fill="#3076F1" fill-opacity="0.26"/>
<path d="M59.9784 38.6954C59.163 38.6954 58.3865 38.4657 57.7015 38.2627C57.4773 38.1963 57.2658 38.1336 57.0724 38.0853C56.9145 38.0461 56.7801 37.9436 56.7003 37.8015C56.6205 37.6598 56.6024 37.4919 56.6502 37.3362C57.5125 34.5326 60.2602 32.5746 63.3322 32.5746C64.4402 32.5746 65.5153 32.807 66.3591 33.2294C66.6373 33.3683 66.7604 33.6996 66.6409 33.987C65.4684 36.8029 62.791 38.6945 59.9784 38.6945V38.6954ZM57.9968 37.1147C58.0104 37.1187 58.0239 37.1228 58.0374 37.1264C58.6453 37.3065 59.3348 37.5104 59.9788 37.5104C62.1029 37.5104 64.2152 36.1201 65.2966 34.0669C64.7122 33.867 64.0344 33.7591 63.3331 33.7591C61.0318 33.7591 58.8834 35.1395 57.9973 37.1142L57.9968 37.1147Z" fill="#3076F1"/>
<path d="M59.1893 48.1716L62.9382 51.9225L67.2787 48.1716L75.3677 51.7253V58.6349H63.7274H51.1003V51.7253L59.1893 48.1716Z" fill="#3076F1" fill-opacity="0.26"/>
<path d="M75.3676 59.2274H51.1002C50.7733 59.2274 50.5085 58.9625 50.5085 58.6354V51.7257C50.5085 51.4906 50.6474 51.2781 50.8626 51.1833L58.952 47.6297C59.1756 47.5317 59.4363 47.5809 59.6086 47.7533L62.9683 51.1152L66.8926 47.724C67.0653 47.5746 67.3079 47.5381 67.5176 47.6297L75.607 51.1833C75.8221 51.2776 75.961 51.4906 75.961 51.7257V58.6354C75.961 58.9625 75.6959 59.2274 75.3694 59.2274H75.3676ZM51.6919 58.0429H74.7759V52.112L67.3828 48.8643L63.325 52.371C63.09 52.5741 62.7387 52.561 62.5196 52.3417L59.057 48.8769L51.6923 52.1125V58.0433L51.6919 58.0429Z" fill="#3076F1"/>
<path d="M67.4832 53.5019H58.8022C58.6367 53.5019 58.4788 53.4324 58.3665 53.3106C58.2547 53.1887 58.1983 53.0254 58.2123 52.8602L58.6069 48.122C58.634 47.7962 58.9167 47.5512 59.2459 47.5809C59.5715 47.608 59.8137 47.8941 59.7866 48.2204L59.4457 52.3173H66.8663L66.695 48.196C66.6814 47.8693 66.9349 47.5931 67.2614 47.5796C67.5924 47.5597 67.8639 47.8197 67.8774 48.1468L68.0749 52.885C68.0817 53.0461 68.0222 53.2031 67.9108 53.3196C67.7994 53.436 67.6447 53.5019 67.4837 53.5019H67.4832Z" fill="#495096"/>
<path d="M66.292 45.4078V49.1587L63.1352 51.9226H62.9377L60.1755 49.3559V45.2097C61.1622 45.8018 62.1485 45.9994 63.3323 45.9994C64.319 45.9994 65.3053 45.8018 66.2915 45.4074L66.292 45.4078Z" fill="#3076F1" fill-opacity="0.26"/>
<path d="M63.1351 52.5149H62.9375C62.7883 52.5149 62.6444 52.4584 62.5348 52.3565L59.7727 49.7897C59.6522 49.6778 59.5833 49.5203 59.5833 49.3556V45.2095C59.5833 44.996 59.6978 44.7993 59.8836 44.6941C60.0689 44.589 60.2967 44.5917 60.4798 44.7018C61.3032 45.1959 62.156 45.4071 63.3321 45.4071C64.2386 45.4071 65.1603 45.2221 66.0717 44.8575C66.2539 44.7844 66.4605 44.8065 66.6233 44.917C66.7861 45.0271 66.8835 45.2113 66.8835 45.4076V49.1584C66.8835 49.3294 66.81 49.4919 66.6814 49.6042L63.5247 52.3682C63.4169 52.4625 63.2785 52.5149 63.1351 52.5149ZM60.7675 49.0979L63.0453 51.2143L65.7001 48.8899V46.2401C64.9123 46.4739 64.1191 46.5921 63.3326 46.5921C62.3472 46.5921 61.5233 46.4558 60.7675 46.1607V49.0979Z" fill="#3076F1"/>
<path d="M52.7444 34.2207C55.2871 31.6764 55.2871 27.5512 52.7444 25.0068C50.2016 22.4624 46.0791 22.4624 43.5364 25.0068C40.9937 27.5512 40.9937 31.6764 43.5364 34.2207C46.0791 36.7651 50.2016 36.7651 52.7444 34.2207Z" fill="#3076F1" fill-opacity="0.26"/>
<path d="M48.1408 36.7211C44.2909 36.7211 41.0381 33.4661 41.0381 29.6138C41.0381 25.7614 44.2909 22.5065 48.1408 22.5065C51.9907 22.5065 55.2435 25.7614 55.2435 29.6138C55.2435 33.4661 51.9907 36.7211 48.1408 36.7211ZM48.1408 23.691C44.9322 23.691 42.2219 26.4035 42.2219 29.6138C42.2219 32.824 44.9322 35.5365 48.1408 35.5365C51.3494 35.5365 54.0597 32.8245 54.0597 29.6138C54.0597 26.4031 51.349 23.691 48.1408 23.691Z" fill="#3076F1"/>
<path d="M50.9028 23.691C52.6787 24.4807 53.862 26.0601 54.4541 28.0344H54.2566C52.2836 28.0344 50.7053 27.2447 49.5215 26.0601C50.1132 25.2704 50.5082 24.6784 50.9023 23.691H50.9028Z" fill="#FFFEFF"/>
<path d="M54.4581 28.6263C54.4581 28.6263 54.4559 28.6263 54.4545 28.6263H54.257C52.2894 28.6263 50.5072 27.8836 49.1034 26.4788C48.895 26.2703 48.8716 25.9405 49.0483 25.7049C49.6468 24.9066 49.9949 24.3687 50.3534 23.4712C50.413 23.3218 50.5311 23.2031 50.6799 23.1427C50.8288 23.0818 50.9961 23.0845 51.1435 23.1503C52.9857 23.9694 54.3183 25.5759 55.0011 27.7987C55.0327 27.8709 55.0498 27.9508 55.0498 28.0347C55.0498 28.3619 54.7846 28.6272 54.4581 28.6272V28.6263ZM50.3106 25.9856C51.2657 26.81 52.3701 27.2875 53.6058 27.4102C53.0696 26.1169 52.2497 25.1287 51.1945 24.5059C50.9379 25.0479 50.6628 25.4915 50.3106 25.9856Z" fill="#3076F1"/>
<path d="M48.1404 23.0985C49.1271 23.0985 50.1133 23.2957 50.9025 23.6906C49.9158 26.2573 47.5483 28.0339 44.7861 28.0339C43.7994 28.0339 42.8131 27.8363 42.0239 27.4419C43.0106 24.8751 45.3782 23.0985 48.1404 23.0985Z" fill="#3076F1" fill-opacity="0.26"/>
<path d="M44.7866 28.6264C43.6786 28.6264 42.6035 28.394 41.7597 27.9716C41.4869 27.8349 41.3624 27.5141 41.472 27.2293C42.5746 24.3602 45.1925 22.5065 48.1405 22.5065C49.2485 22.5065 50.3236 22.7389 51.1673 23.1612C51.4397 23.2975 51.5646 23.6188 51.455 23.9036C50.3524 26.7727 47.7346 28.6264 44.7866 28.6264ZM42.8055 27.1282C43.3936 27.3322 44.0782 27.4419 44.7866 27.4419C47.0572 27.4419 49.0965 26.1102 50.1215 24.0046C49.5335 23.8007 48.8489 23.691 48.1405 23.691C45.8698 23.691 43.8306 25.0227 42.8055 27.1282Z" fill="#3076F1"/>
<path d="M43.9977 38.3005L47.9436 42.0513L52.0871 38.3005L56.8222 40.4719C57.2168 42.4462 58.4006 44.2228 60.1765 45.2101V48.7638H59.5848L59.1902 48.1717L58.0064 48.7638H38.0792L37.0925 48.3689L36.895 48.1713L36.3033 48.7633H35.9087V45.4069C37.8817 44.4195 39.263 42.4457 39.46 40.2738L43.9977 38.2996V38.3005Z" fill="#FFFEFF"/>
<path d="M60.1759 49.3562H59.5842C59.3863 49.3562 59.2014 49.2573 59.0918 49.0926L58.9872 48.9351L58.271 49.2939C58.189 49.335 58.0983 49.3562 58.0063 49.3562H38.0791C38.0037 49.3562 37.9293 49.3417 37.859 49.3137L36.953 48.9509L36.7216 49.1824C36.6107 49.2934 36.4601 49.3557 36.3032 49.3557H35.9086C35.5816 49.3557 35.3169 49.0908 35.3169 48.7637V45.4072C35.3169 45.1829 35.4436 44.9781 35.6438 44.8774C37.4554 43.9709 38.6919 42.1866 38.8705 40.2205C38.8899 40.0048 39.0256 39.817 39.2241 39.7309L43.7617 37.7566C43.9795 37.6614 44.2334 37.7065 44.4052 37.8703L47.9534 41.243L51.6896 37.8604C51.8646 37.7016 52.1176 37.6627 52.3332 37.7611L57.0683 39.9326C57.2406 40.012 57.365 40.1686 57.402 40.3549C57.7786 42.2389 58.8943 43.8192 60.4632 44.6915C60.6512 44.7958 60.7676 44.9939 60.7676 45.2091V48.7628C60.7676 49.0899 60.5024 49.3548 60.1759 49.3548V49.3562ZM38.1927 48.1716H57.8661L58.9249 47.6418C59.1464 47.5313 59.407 47.5714 59.5842 47.7303V45.5485C57.954 44.5304 56.7788 42.8603 56.3071 40.8874L52.1947 39.0012L48.3408 42.4903C48.1112 42.6983 47.7608 42.6943 47.5358 42.4804L43.874 38.9994L40.0074 40.6817C39.7007 42.7917 38.3916 44.6884 36.5002 45.7624V47.7298C36.6382 47.6057 36.8209 47.5575 36.9931 47.5872C37.0252 47.5818 37.0581 47.5791 37.0919 47.5791C37.3408 47.5791 37.5541 47.733 37.6412 47.9509L38.1922 48.1716H38.1927Z" fill="#3076F1"/>
<path d="M52.2919 43.4334H43.8084C43.6469 43.4334 43.4927 43.3675 43.3808 43.2506C43.2695 43.1337 43.2099 42.9767 43.2171 42.8152L43.4147 38.2746C43.4291 37.9479 43.71 37.6957 44.0316 37.7087C44.3581 37.7232 44.6115 37.9993 44.5971 38.3261L44.4266 42.2488H51.6741L51.5036 38.3261C51.4892 37.9993 51.7426 37.7232 52.0691 37.7087C52.3943 37.6957 52.6716 37.9479 52.6861 38.2746L52.8836 42.8152C52.8903 42.9767 52.8313 43.1337 52.7199 43.2506C52.608 43.3675 52.4538 43.4334 52.2924 43.4334H52.2919Z" fill="#495096"/>
<path d="M51.1001 35.3389V39.2874L47.9433 42.0513H47.7458L44.9836 39.2874V35.3389C45.9704 35.7337 46.9566 36.1286 48.1404 36.1286C49.1271 36.1286 50.1134 35.7337 51.0996 35.3389H51.1001Z" fill="#3076F1" fill-opacity="0.26"/>
<path d="M47.9434 42.6438H47.7459C47.5889 42.6438 47.4383 42.5815 47.3274 42.4705L44.5652 39.7065C44.4543 39.5955 44.3916 39.4448 44.3916 39.2878V35.3393C44.3916 35.143 44.489 34.9593 44.6518 34.8488C44.8146 34.7386 45.0211 34.7161 45.2033 34.7892C46.1634 35.1732 47.0703 35.5365 48.1405 35.5365C49.0131 35.5365 49.92 35.1737 50.8801 34.7892C51.0623 34.7161 51.2688 34.7382 51.4316 34.8488C51.5944 34.9589 51.6918 35.143 51.6918 35.3393V39.2878C51.6918 39.4588 51.6183 39.6212 51.4898 39.7336L48.333 42.4976C48.2253 42.5919 48.0868 42.6442 47.9434 42.6442V42.6438ZM45.5758 39.0423L47.8649 41.3329L50.508 39.0188V36.2057C49.74 36.4904 48.9522 36.721 48.1405 36.721C47.1817 36.721 46.3542 36.4904 45.5754 36.2043V39.0423H45.5758Z" fill="#3076F1"/>
<path d="M19.3354 16.3861H22.8867V22.3089C22.8867 23.4934 23.873 24.2831 25.0568 24.2831H30.5811L31.3703 24.8752C30.9757 25.4672 30.384 26.0597 29.3973 26.0597H23.6759L19.9275 28.4288V26.0597H19.3358C18.152 26.0597 17.1658 25.0724 17.1658 24.0855V18.3604C17.1658 17.3735 18.152 16.3861 19.3358 16.3861H19.3354Z" fill="#3076F1" fill-opacity="0.26"/>
<path d="M19.9268 29.0213C19.8285 29.0213 19.7302 28.9969 19.6409 28.9478C19.4519 28.8435 19.3347 28.645 19.3347 28.4293V26.6522C17.8632 26.6522 16.5725 25.4528 16.5725 24.0855V18.3604C16.5725 16.9931 17.8632 15.7941 19.3347 15.7941H22.886C23.213 15.7941 23.4777 16.059 23.4777 16.3861V22.3089C23.4777 23.2163 24.2718 23.6906 25.0561 23.6906H30.5804C30.7085 23.6906 30.8329 23.7321 30.9353 23.8088L31.7245 24.4009C31.9761 24.5895 32.0361 24.9415 31.862 25.2032C31.2217 26.1644 30.3923 26.6513 29.3966 26.6513H23.8461L20.242 28.9288C20.1455 28.9897 20.0359 29.0204 19.9259 29.0204L19.9268 29.0213ZM19.3351 16.9786C18.4463 16.9786 17.7567 17.7214 17.7567 18.3604V24.0855C17.7567 24.7244 18.4463 25.4672 19.3351 25.4672H19.9268C20.2537 25.4672 20.5185 25.7325 20.5185 26.0593V27.3539L23.3591 25.5588C23.4538 25.4993 23.5629 25.4672 23.6752 25.4672H29.3966C29.8358 25.4672 30.198 25.3147 30.5276 24.9835L30.3833 24.8752H25.0565C23.4817 24.8752 22.2944 23.7718 22.2944 22.3089V16.9786H19.3351Z" fill="#3076F1"/>
<path d="M35.1189 14.6094H25.0565C23.8727 14.6094 22.8865 15.5963 22.8865 16.7808V22.3087C22.8865 23.4933 23.8727 24.283 25.0565 24.283H30.5808L34.5268 26.8497V24.283H35.1185C36.1052 24.283 37.0914 23.4933 37.0914 22.3087V16.7808C37.0914 15.5963 36.1047 14.6094 35.1185 14.6094H35.1189Z" fill="#3076F1" fill-opacity="0.26"/>
<path d="M34.5274 27.442C34.4146 27.442 34.3023 27.4099 34.2049 27.3463L30.406 24.8752H25.0571C23.4823 24.8752 22.2949 23.7719 22.2949 22.3089V16.781C22.2949 15.2571 23.5342 14.0171 25.0571 14.0171H35.1195C36.4859 14.0171 37.6846 15.3086 37.6846 16.781V22.3089C37.6846 23.8942 36.3533 24.8752 35.1195 24.8752V26.8495C35.1195 27.067 35.0004 27.2664 34.8097 27.3702C34.7213 27.4181 34.6243 27.442 34.5274 27.442ZM25.0571 15.2016C24.2016 15.2016 23.4787 15.925 23.4787 16.781V22.3089C23.4787 23.2164 24.2729 23.6907 25.0571 23.6907H30.5814C30.696 23.6907 30.8078 23.7241 30.9038 23.7864L33.9352 25.7579V24.2827C33.9352 23.9556 34.2 23.6907 34.5269 23.6907H35.1186C35.7828 23.6907 36.4994 23.1623 36.4994 22.3089V16.781C36.4994 15.8916 35.7571 15.2016 35.1186 15.2016H25.0562H25.0571Z" fill="#3076F1"/>
<path d="M33.5481 17.9655H26.4454C26.1185 17.9655 25.8538 17.7006 25.8538 17.3734C25.8538 17.0463 26.1185 16.7814 26.4454 16.7814H33.5481C33.8751 16.7814 34.1398 17.0463 34.1398 17.3734C34.1398 17.7006 33.8751 17.9655 33.5481 17.9655Z" fill="#495096"/>
<path d="M33.5481 20.927H26.4454C26.1185 20.927 25.8538 20.6621 25.8538 20.335C25.8538 20.0078 26.1185 19.7429 26.4454 19.7429H33.5481C33.8751 19.7429 34.1398 20.0078 34.1398 20.335C34.1398 20.6621 33.8751 20.927 33.5481 20.927Z" fill="#495096"/>
<path d="M79.3211 43.4336C78.9941 43.4336 78.7294 43.1687 78.7294 42.8415V17.7683H42.0321C41.7051 17.7683 41.4404 17.5034 41.4404 17.1763C41.4404 16.8491 41.7051 16.5842 42.0321 16.5842H79.3211C79.648 16.5842 79.9127 16.8491 79.9127 17.1763V42.8415C79.9127 43.1687 79.648 43.4336 79.3211 43.4336Z" fill="#495096"/>
<path d="M0.591553 0.592041H84.8377V4.73819H5.9188V69.0987H0.591553V0.592041Z" fill="#3076F1" fill-opacity="0.26"/>
<path d="M5.91892 69.6908H0.591666C0.264717 69.6908 0 69.4259 0 69.0987V0.592049C0 0.264888 0.264717 0 0.591666 0H84.8378C85.1648 0 85.4295 0.264888 85.4295 0.592049V4.73775C85.4295 5.06491 85.1643 5.32979 84.8378 5.32979H6.51058V69.0978C6.51058 69.425 6.24587 69.6898 5.91892 69.6898V69.6908ZM1.18378 68.5062H5.3268V4.7382C5.3268 4.41104 5.59152 4.14615 5.91847 4.14615H84.2457V1.18455H1.18378V68.5062Z" fill="#3076F1"/>
</svg>
